<svg width="291" height="66" viewBox="0 0 291 66" fill="none" xmlns="http://www.w3.org/2000/svg">
<path d="M65.4785 44.7858V52.4874H64.7941L60.2439 46.0381H60.1837V52.4874H59.4805V44.7858H60.1611L64.7264 51.2427H64.7866V44.7858H65.4785Z" fill="#22BE6E"/>
<path d="M76.048 44.7858H76.7512V49.8851C76.7512 50.4091 76.6284 50.8779 76.3827 51.2916C76.137 51.7027 75.7948 52.0274 75.3561 52.2655C74.9198 52.5012 74.4122 52.619 73.833 52.619C73.2564 52.619 72.7487 52.4999 72.31 52.2618C71.8713 52.0236 71.5291 51.6989 71.2834 51.2878C71.0377 50.8766 70.9149 50.4091 70.9149 49.8851V44.7858H71.6181V49.8362C71.6181 50.2449 71.7096 50.6096 71.8926 50.9305C72.0756 51.2489 72.3326 51.4996 72.6635 51.6827C72.9969 51.8657 73.3868 51.9572 73.833 51.9572C74.2793 51.9572 74.6691 51.8657 75.0026 51.6827C75.336 51.4996 75.593 51.2489 75.7735 50.9305C75.9565 50.6096 76.048 50.2449 76.048 49.8362V44.7858Z" fill="#22BE6E"/>
<path d="M81.7175 45.4176V44.7858H87.3019V45.4176H84.8613V52.4874H84.1581V45.4176H81.7175Z" fill="#22BE6E"/>
<path d="M92.2738 52.4874V44.7858H94.7595C95.306 44.7858 95.7623 44.8848 96.1283 45.0829C96.4968 45.2784 96.7739 45.5505 96.9594 45.8989C97.1474 46.2449 97.2414 46.6423 97.2414 47.091C97.2414 47.5398 97.1474 47.9359 96.9594 48.2794C96.7739 48.6228 96.4981 48.8911 96.1321 49.0841C95.766 49.2772 95.3123 49.3737 94.7708 49.3737H92.6536V48.7306H94.752C95.1531 48.7306 95.4865 48.6642 95.7523 48.5313C96.0205 48.3984 96.2198 48.2092 96.3502 47.9635C96.4831 47.7178 96.5495 47.427 96.5495 47.091C96.5495 46.7551 96.4831 46.4618 96.3502 46.2111C96.2173 45.9579 96.0168 45.7623 95.7485 45.6244C95.4828 45.4865 95.1468 45.4176 94.7407 45.4176H92.977V52.4874H92.2738ZM95.6695 49.0127L97.5648 52.4874H96.7526L94.8761 49.0127H95.6695Z" fill="#22BE6E"/>
<path d="M103.046 44.7858V52.4874H102.343V44.7858H103.046Z" fill="#22BE6E"/>
<path d="M114.515 47.1926H113.808C113.755 46.9293 113.66 46.6861 113.522 46.463C113.386 46.2374 113.216 46.0406 113.01 45.8726C112.805 45.7046 112.572 45.5743 112.311 45.4815C112.05 45.3888 111.768 45.3424 111.465 45.3424C110.978 45.3424 110.535 45.469 110.133 45.7222C109.735 45.9754 109.415 46.3477 109.175 46.8391C108.936 47.3279 108.817 47.9271 108.817 48.6366C108.817 49.3511 108.936 49.9528 109.175 50.4417C109.415 50.9305 109.735 51.3016 110.133 51.5548C110.535 51.8055 110.978 51.9308 111.465 51.9308C111.768 51.9308 112.05 51.8845 112.311 51.7917C112.572 51.6989 112.805 51.5698 113.01 51.4044C113.216 51.2364 113.386 51.0396 113.522 50.814C113.66 50.5883 113.755 50.3439 113.808 50.0807H114.515C114.452 50.4341 114.334 50.7638 114.161 51.0697C113.991 51.373 113.772 51.6388 113.507 51.8669C113.243 52.0951 112.94 52.2731 112.597 52.4009C112.253 52.5288 111.876 52.5927 111.465 52.5927C110.818 52.5927 110.244 52.431 109.742 52.1076C109.241 51.7817 108.847 51.3229 108.562 50.7312C108.278 50.1396 108.137 49.4414 108.137 48.6366C108.137 47.8319 108.278 47.1336 108.562 46.542C108.847 45.9503 109.241 45.4928 109.742 45.1694C110.244 44.8435 110.818 44.6805 111.465 44.6805C111.876 44.6805 112.253 44.7444 112.597 44.8723C112.94 44.9977 113.243 45.1757 113.507 45.4063C113.772 45.6344 113.991 45.9002 114.161 46.2035C114.334 46.5069 114.452 46.8366 114.515 47.1926Z" fill="#22BE6E"/>
<path d="M120.258 44.7858V52.4874H119.555V44.7858H120.258Z" fill="#22BE6E"/>
<path d="M132.009 48.6366C132.009 49.4389 131.866 50.1371 131.58 50.7312C131.294 51.3229 130.9 51.7817 130.399 52.1076C129.9 52.431 129.326 52.5927 128.677 52.5927C128.027 52.5927 127.452 52.431 126.951 52.1076C126.452 51.7817 126.059 51.3229 125.774 50.7312C125.49 50.1371 125.349 49.4389 125.349 48.6366C125.349 47.8344 125.49 47.1374 125.774 46.5457C126.059 45.9516 126.453 45.4928 126.954 45.1694C127.456 44.8435 128.03 44.6805 128.677 44.6805C129.326 44.6805 129.9 44.8435 130.399 45.1694C130.9 45.4928 131.294 45.9516 131.58 46.5457C131.866 47.1374 132.009 47.8344 132.009 48.6366ZM131.324 48.6366C131.324 47.9472 131.209 47.3568 130.978 46.8654C130.747 46.3715 130.433 45.9942 130.034 45.7335C129.636 45.4727 129.183 45.3424 128.677 45.3424C128.173 45.3424 127.722 45.4727 127.323 45.7335C126.924 45.9942 126.608 46.3703 126.375 46.8616C126.145 47.353 126.029 47.9447 126.029 48.6366C126.029 49.326 126.145 49.9164 126.375 50.4078C126.606 50.8992 126.921 51.2765 127.319 51.5397C127.718 51.8005 128.17 51.9308 128.677 51.9308C129.183 51.9308 129.636 51.8005 130.034 51.5397C130.435 51.279 130.751 50.903 130.982 50.4116C131.213 49.9177 131.327 49.326 131.324 48.6366Z" fill="#22BE6E"/>
<path d="M143.096 44.7858V52.4874H142.412L137.861 46.0381H137.801V52.4874H137.098V44.7858H137.779L142.344 51.2427H142.404V44.7858H143.096Z" fill="#22BE6E"/>
<path d="M149.236 44.7858V52.4874H148.532V44.7858H149.236Z" fill="#22BE6E"/>
<path d="M158.854 46.7112C158.811 46.2825 158.622 45.9416 158.286 45.6883C157.95 45.4351 157.527 45.3085 157.018 45.3085C156.66 45.3085 156.344 45.37 156.071 45.4928C155.8 45.6156 155.587 45.7861 155.431 46.0042C155.279 46.2198 155.202 46.4655 155.202 46.7413C155.202 46.9444 155.246 47.1224 155.334 47.2753C155.421 47.4282 155.539 47.5598 155.687 47.6702C155.838 47.778 156.003 47.8707 156.184 47.9484C156.367 48.0261 156.551 48.0913 156.736 48.144L157.549 48.3771C157.794 48.4448 158.04 48.5313 158.286 48.6366C158.531 48.7419 158.756 48.8748 158.959 49.0352C159.164 49.1932 159.329 49.3875 159.451 49.6181C159.577 49.8463 159.64 50.1208 159.64 50.4417C159.64 50.8528 159.533 51.2226 159.32 51.551C159.107 51.8795 158.801 52.1402 158.402 52.3332C158.004 52.5238 157.526 52.619 156.97 52.619C156.446 52.619 155.991 52.5325 155.604 52.3595C155.218 52.1841 154.915 51.9421 154.694 51.6338C154.474 51.3254 154.35 50.9681 154.322 50.562H155.044C155.069 50.8654 155.169 51.1223 155.345 51.3329C155.52 51.5435 155.749 51.704 156.029 51.8143C156.31 51.9221 156.624 51.976 156.97 51.976C157.353 51.976 157.694 51.912 157.992 51.7842C158.293 51.6538 158.529 51.4733 158.699 51.2427C158.872 51.0095 158.959 50.7388 158.959 50.4304C158.959 50.1697 158.891 49.9515 158.756 49.7761C158.62 49.5981 158.431 49.4489 158.188 49.3286C157.947 49.2082 157.668 49.1017 157.349 49.0089L156.428 48.7381C155.824 48.5576 155.355 48.3082 155.022 47.9898C154.688 47.6714 154.521 47.2653 154.521 46.7714C154.521 46.3577 154.632 45.9942 154.852 45.6808C155.075 45.3649 155.376 45.1192 155.755 44.9438C156.136 44.7658 156.563 44.6768 157.037 44.6768C157.516 44.6768 157.94 44.7645 158.308 44.94C158.677 45.1155 158.969 45.3574 159.184 45.6658C159.403 45.9716 159.519 46.3201 159.534 46.7112H158.854Z" fill="#22BE6E"/>
<path d="M164.254 45.4176V44.7858H169.839V45.4176H167.398V52.4874H166.695V45.4176H164.254Z" fill="#22BE6E"/>
<path d="M173.922 52.4874H173.185L175.987 44.7858H176.739L179.54 52.4874H178.803L176.389 45.6996H176.336L173.922 52.4874ZM174.452 49.5354H178.273V50.1672H174.452V49.5354Z" fill="#22BE6E"/>
<path d="M59.4463 36.6923V13.6317H63.656V25.6418L62.5107 25.2394L72.3231 13.6317H77.6162L68.4229 24.5274L68.6705 21.5559L77.8948 36.6923H72.9422L66.7514 26.5394L63.656 30.223V36.6923H59.4463Z" fill="#13645B"/>
<path d="M84.9196 37.0637C83.7434 37.0637 82.7219 36.8677 81.8552 36.4756C80.9885 36.0835 80.3178 35.5264 79.8432 34.8041C79.3685 34.0612 79.1312 33.2048 79.1312 32.235C79.1312 31.3063 79.3376 30.4809 79.7503 29.7586C80.163 29.0158 80.8027 28.3967 81.6694 27.9014C82.5362 27.4062 83.6299 27.0553 84.9506 26.849L90.4603 25.9513V29.0467L85.7244 29.8515C84.9196 29.996 84.3212 30.2539 83.9291 30.6254C83.537 30.9968 83.341 31.4817 83.341 32.0802C83.341 32.658 83.5576 33.1223 83.991 33.4731C84.445 33.8033 85.0021 33.9684 85.6625 33.9684C86.5086 33.9684 87.2515 33.793 87.8912 33.4422C88.5515 33.0707 89.0571 32.5651 89.4079 31.9254C89.7793 31.2857 89.9651 30.5841 89.9651 29.8206V25.487C89.9651 24.7648 89.6762 24.1663 89.0984 23.6917C88.5412 23.1964 87.7983 22.9488 86.8697 22.9488C86.003 22.9488 85.2291 23.1861 84.5482 23.6607C83.8878 24.1147 83.4029 24.7235 83.0933 25.487L79.7813 23.8774C80.1114 22.9901 80.6273 22.2265 81.329 21.5868C82.0512 20.9265 82.8973 20.4106 83.8672 20.0391C84.8371 19.6677 85.8895 19.482 87.0245 19.482C88.4071 19.482 89.6246 19.7399 90.677 20.2558C91.7294 20.7511 92.5446 21.4527 93.1224 22.3607C93.7208 23.248 94.02 24.2901 94.02 25.487V36.6923H90.1817V33.8136L91.0485 33.7517C90.6151 34.4739 90.0992 35.0827 89.5008 35.578C88.9023 36.0526 88.2213 36.424 87.4578 36.6923C86.6943 36.9399 85.8482 37.0637 84.9196 37.0637Z" fill="#13645B"/>
<path d="M97.7679 36.6923V19.8534H101.575V23.5988L101.266 23.0417C101.658 21.7829 102.266 20.9058 103.092 20.4106C103.938 19.9153 104.949 19.6677 106.125 19.6677H107.116V23.2583H105.661C104.505 23.2583 103.577 23.6195 102.875 24.3417C102.174 25.0433 101.823 26.0339 101.823 27.3133V36.6923H97.7679Z" fill="#13645B"/>
<path d="M117.579 37.0637C115.928 37.0637 114.422 36.682 113.06 35.9185C111.718 35.1549 110.645 34.1128 109.841 32.7921C109.056 31.4714 108.664 29.965 108.664 28.2729C108.664 26.5807 109.056 25.0743 109.841 23.7536C110.645 22.4329 111.718 21.3908 113.06 20.6273C114.401 19.8637 115.908 19.482 117.579 19.482C119.23 19.482 120.726 19.8637 122.067 20.6273C123.409 21.3908 124.471 22.4329 125.256 23.7536C126.06 25.0537 126.463 26.5601 126.463 28.2729C126.463 29.965 126.06 31.4714 125.256 32.7921C124.451 34.1128 123.378 35.1549 122.036 35.9185C120.695 36.682 119.209 37.0637 117.579 37.0637ZM117.579 33.3493C118.487 33.3493 119.281 33.1326 119.962 32.6993C120.664 32.2659 121.211 31.6675 121.603 30.9039C122.016 30.1198 122.222 29.2427 122.222 28.2729C122.222 27.2823 122.016 26.4156 121.603 25.6727C121.211 24.9092 120.664 24.3108 119.962 23.8774C119.281 23.4234 118.487 23.1964 117.579 23.1964C116.65 23.1964 115.835 23.4234 115.134 23.8774C114.432 24.3108 113.875 24.9092 113.462 25.6727C113.07 26.4156 112.874 27.2823 112.874 28.2729C112.874 29.2427 113.07 30.1198 113.462 30.9039C113.875 31.6675 114.432 32.2659 115.134 32.6993C115.835 33.1326 116.65 33.3493 117.579 33.3493Z" fill="#13645B"/>
<path d="M129.538 36.6923V13.2603H133.593V36.6923H129.538Z" fill="#13645B"/>
<path d="M137.337 36.6923V19.8534H141.392V36.6923H137.337ZM137.337 17.9652V13.6317H141.392V17.9652H137.337Z" fill="#13645B"/>
<path d="M145.136 36.6923V19.8534H148.943V23.1655L148.633 22.5774C149.026 21.5662 149.665 20.8027 150.553 20.2868C151.461 19.7502 152.513 19.482 153.71 19.482C154.948 19.482 156.042 19.7502 156.991 20.2868C157.961 20.8233 158.714 21.5765 159.251 22.5464C159.787 23.4957 160.055 24.5997 160.055 25.8585V36.6923H156V26.818C156 26.0751 155.856 25.4354 155.567 24.8989C155.278 24.3624 154.876 23.9496 154.36 23.6607C153.865 23.3512 153.277 23.1964 152.596 23.1964C151.935 23.1964 151.347 23.3512 150.831 23.6607C150.315 23.9496 149.913 24.3624 149.624 24.8989C149.335 25.4354 149.191 26.0751 149.191 26.818V36.6923H145.136Z" fill="#13645B"/>
<path d="M171.47 37.0637C169.737 37.0637 168.22 36.6717 166.92 35.8875C165.62 35.1033 164.609 34.0406 163.887 32.6993C163.164 31.3579 162.803 29.8721 162.803 28.2419C162.803 26.5498 163.164 25.0537 163.887 23.7536C164.63 22.4329 165.63 21.3908 166.889 20.6273C168.169 19.8637 169.593 19.482 171.161 19.482C172.482 19.482 173.637 19.6986 174.628 20.132C175.639 20.5654 176.495 21.1638 177.197 21.9273C177.898 22.6909 178.435 23.5679 178.806 24.5584C179.178 25.5283 179.364 26.5807 179.364 27.7157C179.364 28.0046 179.343 28.3038 179.302 28.6134C179.281 28.9229 179.229 29.1912 179.147 29.4182H166.146V26.3228H176.856L174.937 27.7776C175.123 26.8283 175.071 25.9823 174.782 25.2394C174.514 24.4965 174.06 23.9084 173.42 23.475C172.801 23.0417 172.048 22.825 171.161 22.825C170.315 22.825 169.562 23.0417 168.901 23.475C168.241 23.8877 167.735 24.5068 167.384 25.3322C167.054 26.137 166.93 27.1173 167.013 28.2729C166.93 29.3047 167.065 30.223 167.415 31.0278C167.787 31.8119 168.323 32.4207 169.025 32.854C169.747 33.2874 170.573 33.5041 171.501 33.5041C172.43 33.5041 173.214 33.308 173.854 32.9159C174.514 32.5239 175.03 31.9976 175.402 31.3373L178.683 32.9469C178.352 33.7517 177.837 34.4636 177.135 35.0827C176.433 35.7018 175.598 36.1867 174.628 36.5375C173.678 36.8883 172.626 37.0637 171.47 37.0637Z" fill="#13645B"/>
<path d="M188.28 36.6923V13.6317H197.999C199.526 13.6317 200.826 13.9 201.899 14.4365C202.993 14.9524 203.829 15.6953 204.406 16.6652C205.005 17.6144 205.304 18.77 205.304 20.132C205.304 21.1844 205.015 22.175 204.437 23.1036C203.88 24.0116 202.983 24.7648 201.744 25.3632V23.4131C202.879 23.8465 203.777 24.383 204.437 25.0227C205.098 25.6624 205.562 26.3744 205.83 27.1585C206.099 27.9427 206.233 28.7681 206.233 29.6348C206.233 31.8429 205.5 33.5763 204.035 34.8351C202.59 36.0732 200.578 36.6923 197.999 36.6923H188.28ZM192.489 32.9778H198.432C199.526 32.9778 200.393 32.6786 201.032 32.0802C201.693 31.4611 202.023 30.646 202.023 29.6348C202.023 28.6237 201.693 27.8086 201.032 27.1895C200.393 26.5704 199.526 26.2609 198.432 26.2609H192.489V32.9778ZM192.489 22.5774H198.216C199.082 22.5774 199.774 22.3297 200.29 21.8345C200.805 21.3186 201.063 20.6582 201.063 19.8534C201.063 19.0486 200.805 18.4089 200.29 17.9343C199.774 17.4597 199.082 17.2223 198.216 17.2223H192.489V22.5774Z" fill="#13645B"/>
<path d="M214.448 37.0637C213.272 37.0637 212.25 36.8677 211.384 36.4756C210.517 36.0835 209.846 35.5264 209.372 34.8041C208.897 34.0612 208.66 33.2048 208.66 32.235C208.66 31.3063 208.866 30.4809 209.279 29.7586C209.691 29.0158 210.331 28.3967 211.198 27.9014C212.065 27.4062 213.158 27.0553 214.479 26.849L219.989 25.9513V29.0467L215.253 29.8515C214.448 29.996 213.85 30.2539 213.458 30.6254C213.065 30.9968 212.869 31.4817 212.869 32.0802C212.869 32.658 213.086 33.1223 213.519 33.4731C213.973 33.8033 214.531 33.9684 215.191 33.9684C216.037 33.9684 216.78 33.793 217.42 33.4422C218.08 33.0707 218.586 32.5651 218.936 31.9254C219.308 31.2857 219.494 30.5841 219.494 29.8206V25.487C219.494 24.7648 219.205 24.1663 218.627 23.6917C218.07 23.1964 217.327 22.9488 216.398 22.9488C215.531 22.9488 214.758 23.1861 214.077 23.6607C213.416 24.1147 212.931 24.7235 212.622 25.487L209.31 23.8774C209.64 22.9901 210.156 22.2265 210.857 21.5868C211.58 20.9265 212.426 20.4106 213.396 20.0391C214.366 19.6677 215.418 19.482 216.553 19.482C217.936 19.482 219.153 19.7399 220.205 20.2558C221.258 20.7511 222.073 21.4527 222.651 22.3607C223.249 23.248 223.548 24.2901 223.548 25.487V36.6923H219.71V33.8136L220.577 33.7517C220.144 34.4739 219.628 35.0827 219.029 35.578C218.431 36.0526 217.75 36.424 216.986 36.6923C216.223 36.9399 215.377 37.0637 214.448 37.0637Z" fill="#13645B"/>
<path d="M234.671 36.878C232.772 36.878 231.297 36.3621 230.244 35.3303C229.212 34.2779 228.696 32.8024 228.696 30.9039V23.475H225.787V19.8534H226.096C226.922 19.8534 227.562 19.6367 228.016 19.2034C228.469 18.77 228.696 18.1406 228.696 17.3152V16.0151H232.751V19.8534H236.621V23.475H232.751V30.6873C232.751 31.2444 232.844 31.7191 233.03 32.1111C233.236 32.5032 233.546 32.8024 233.959 33.0088C234.392 33.2152 234.939 33.3183 235.599 33.3183C235.744 33.3183 235.909 33.308 236.094 33.2874C236.301 33.2667 236.497 33.2461 236.683 33.2255V36.6923C236.394 36.7336 236.064 36.7748 235.692 36.8161C235.321 36.8574 234.98 36.878 234.671 36.878Z" fill="#13645B"/>
<path d="M239.781 36.6923V19.8534H243.836V36.6923H239.781ZM239.781 17.9652V13.6317H243.836V17.9652H239.781Z" fill="#13645B"/>
<path d="M253.987 37.0637C252.192 37.0637 250.623 36.6407 249.282 35.7946C247.961 34.9279 247.053 33.762 246.558 32.2969L249.592 30.842C250.025 31.7913 250.623 32.5342 251.387 33.0707C252.171 33.6072 253.038 33.8755 253.987 33.8755C254.73 33.8755 255.318 33.7104 255.751 33.3802C256.185 33.0501 256.401 32.6167 256.401 32.0802C256.401 31.75 256.309 31.4817 256.123 31.2754C255.958 31.0484 255.72 30.8627 255.411 30.7182C255.122 30.5531 254.802 30.419 254.451 30.3158L251.696 29.542C250.273 29.1292 249.189 28.4999 248.446 27.6538C247.724 26.8077 247.363 25.8069 247.363 24.6513C247.363 23.6195 247.621 22.7218 248.137 21.9583C248.673 21.1741 249.406 20.5654 250.334 20.132C251.284 19.6986 252.367 19.482 253.585 19.482C255.174 19.482 256.577 19.8637 257.794 20.6273C259.012 21.3908 259.879 22.4639 260.394 23.8465L257.299 25.3013C257.01 24.5378 256.525 23.929 255.844 23.475C255.163 23.021 254.4 22.794 253.554 22.794C252.873 22.794 252.336 22.9488 251.944 23.2583C251.552 23.5679 251.356 23.9703 251.356 24.4655C251.356 24.7751 251.438 25.0433 251.604 25.2703C251.769 25.4973 251.996 25.6831 252.285 25.8275C252.594 25.972 252.945 26.1061 253.337 26.2299L256.03 27.0347C257.413 27.4474 258.475 28.0665 259.218 28.8919C259.982 29.7174 260.363 30.7285 260.363 31.9254C260.363 32.9366 260.095 33.8342 259.559 34.6184C259.022 35.3819 258.279 35.9804 257.33 36.4137C256.381 36.8471 255.266 37.0637 253.987 37.0637Z" fill="#13645B"/>
<path d="M271.156 36.878C269.258 36.878 267.782 36.3621 266.73 35.3303C265.698 34.2779 265.182 32.8024 265.182 30.9039V23.475H262.272V19.8534H262.582C263.407 19.8534 264.047 19.6367 264.501 19.2034C264.955 18.77 265.182 18.1406 265.182 17.3152V16.0151H269.237V19.8534H273.106V23.475H269.237V30.6873C269.237 31.2444 269.33 31.7191 269.516 32.1111C269.722 32.5032 270.032 32.8024 270.444 33.0088C270.878 33.2152 271.424 33.3183 272.085 33.3183C272.229 33.3183 272.394 33.308 272.58 33.2874C272.786 33.2667 272.982 33.2461 273.168 33.2255V36.6923C272.879 36.7336 272.549 36.7748 272.178 36.8161C271.806 36.8574 271.466 36.878 271.156 36.878Z" fill="#13645B"/>
<path d="M281.313 37.0637C280.137 37.0637 279.115 36.8677 278.249 36.4756C277.382 36.0835 276.711 35.5264 276.237 34.8041C275.762 34.0612 275.525 33.2048 275.525 32.235C275.525 31.3063 275.731 30.4809 276.144 29.7586C276.557 29.0158 277.196 28.3967 278.063 27.9014C278.93 27.4062 280.023 27.0553 281.344 26.849L286.854 25.9513V29.0467L282.118 29.8515C281.313 29.996 280.715 30.2539 280.323 30.6254C279.931 30.9968 279.735 31.4817 279.735 32.0802C279.735 32.658 279.951 33.1223 280.385 33.4731C280.839 33.8033 281.396 33.9684 282.056 33.9684C282.902 33.9684 283.645 33.793 284.285 33.4422C284.945 33.0707 285.451 32.5651 285.801 31.9254C286.173 31.2857 286.359 30.5841 286.359 29.8206V25.487C286.359 24.7648 286.07 24.1663 285.492 23.6917C284.935 23.1964 284.192 22.9488 283.263 22.9488C282.397 22.9488 281.623 23.1861 280.942 23.6607C280.281 24.1147 279.796 24.7235 279.487 25.487L276.175 23.8774C276.505 22.9901 277.021 22.2265 277.723 21.5868C278.445 20.9265 279.291 20.4106 280.261 20.0391C281.231 19.6677 282.283 19.482 283.418 19.482C284.801 19.482 286.018 19.7399 287.071 20.2558C288.123 20.7511 288.938 21.4527 289.516 22.3607C290.114 23.248 290.414 24.2901 290.414 25.487V36.6923H286.575V33.8136L287.442 33.7517C287.009 34.4739 286.493 35.0827 285.894 35.578C285.296 36.0526 284.615 36.424 283.851 36.6923C283.088 36.9399 282.242 37.0637 281.313 37.0637Z" fill="#13645B"/>
<path fill-rule="evenodd" clip-rule="evenodd" d="M21.4524 3.65961C20.4707 5.65715 18.6365 8.90274 17.3763 10.8698C16.1161 12.8368 13.3885 16.8047 11.3164 19.6874C9.2444 22.5701 6.9346 25.8462 6.18392 26.9654C5.42983 28.0846 4.19341 30.2212 3.43593 31.7134C2.67506 33.2056 1.75453 35.1896 1.38768 36.1222C1.02083 37.0548 0.521504 39.0388 0.276937 40.531C-0.086517 42.7321 -0.0899187 43.8478 0.253155 46.466C0.487532 48.2363 1.0548 50.6035 1.51336 51.7227C1.97193 52.8419 2.84489 54.5817 3.45291 55.5923C4.05753 56.5996 5.55891 58.4309 6.78854 59.662C8.01477 60.8897 9.92716 62.443 11.0345 63.1111C12.1385 63.7792 13.3885 64.4269 13.8097 64.5524C14.5434 64.7695 14.5298 64.7118 13.5413 63.1687C12.9741 62.2802 12.0094 59.8621 12.0094 59.8621C12.0094 59.8621 11.0073 57.6678 9.63842 56.3011C8.44616 55.1107 7.27428 53.4523 6.40811 51.7227C5.66082 50.2305 4.88294 48.0939 4.67914 46.9747C4.47533 45.8556 4.39381 43.7936 4.49911 42.3963C4.60781 40.9957 5.01542 38.9371 5.40265 37.8179C5.79328 36.6987 6.724 34.6368 7.47128 33.2395C8.21857 31.8389 10.1513 28.8646 11.7614 26.6263C13.3715 24.3879 16.0787 20.559 17.7737 18.1206C19.4687 15.6822 21.3912 12.7486 22.0468 11.6023C22.699 10.456 23.3104 9.50979 23.4055 9.49962C23.4972 9.48945 23.7758 9.9032 24.0237 10.4221C24.2683 10.941 25.7527 13.2709 27.322 15.6042C28.8913 17.9341 30.5455 20.3013 30.9973 20.8609L31.8159 21.8783C34.0578 20.3013 34.7745 19.6908 34.8526 19.5043C34.9342 19.3178 33.7079 17.2558 32.1284 14.9259C30.5489 12.5926 28.195 8.77725 26.9008 6.44735C25.6032 4.11406 24.3261 1.70616 24.0611 1.09231C23.7928 0.478464 23.4972 -0.0132916 23.4055 0.000274067C23.3104 0.0138397 22.4341 1.65867 21.4524 3.65961Z" fill="#13645B"/>
<path fill-rule="evenodd" clip-rule="evenodd" d="M39.1198 17.6394C38.4778 18.6602 37.1904 20.1422 36.2563 20.9257C35.3222 21.7125 34.0213 22.7197 33.3691 23.1674C32.7135 23.6151 30.1931 24.9038 27.7644 26.0297C25.3357 27.1591 22.5843 28.5292 21.6502 29.0752C20.7161 29.6212 19.2827 30.6861 18.4641 31.4424C17.6454 32.1987 16.5075 33.5044 15.9369 34.3421C15.3628 35.1832 14.5306 36.7839 14.0856 37.9031C13.5184 39.3309 13.2093 40.9757 13.0462 43.4175C12.9002 45.666 12.9375 46.8869 13.1583 46.8734C13.3451 46.8632 14.337 45.7542 15.3628 44.4146C16.3886 43.0716 17.496 41.1724 17.8255 40.1923C18.155 39.2122 18.7834 37.8386 19.2249 37.14C19.6665 36.4414 20.7365 35.2205 21.6027 34.4269C22.6659 33.4569 25.1455 32.0359 29.208 30.0757C32.5233 28.4716 36.1171 26.4876 37.1904 25.6669L39.1436 24.1679C39.6667 26.1383 39.8161 28.0849 39.8161 29.7637C39.8127 31.4526 39.5716 33.7282 39.2727 34.8508C38.9771 35.97 38.257 37.8793 37.6694 39.0901C37.0342 40.4127 35.7876 42.1322 34.5647 43.3836C33.1789 44.8012 31.81 45.7983 30.312 46.4867C29.0959 47.0429 27.187 47.6636 26.066 47.8603C24.9451 48.057 23.3011 48.3011 22.4145 48.4029C21.2528 48.5351 20.801 48.4673 20.7976 48.1621C20.7976 47.9281 23.3826 45.2217 26.5416 42.1423C29.7006 39.0663 32.6523 35.936 33.0939 35.1899C33.5389 34.4438 34.1062 33.3755 34.3541 32.816C34.7516 31.924 34.5613 32.0258 32.8086 33.6638C31.7115 34.6914 28.3079 37.2858 25.2474 39.4292C22.119 41.6201 18.943 44.1467 17.9987 45.1946C17.0714 46.2222 15.8519 48.0536 15.2881 49.2643C14.7208 50.4784 14.1196 52.3844 13.9531 53.5036C13.7561 54.8059 13.7697 56.1794 13.9973 57.3189C14.1875 58.299 14.6325 59.6725 14.9824 60.3712C15.3322 61.0698 16.375 62.3314 17.3024 63.1691C18.2297 64.0102 19.7413 64.9632 20.6584 65.2921C21.6604 65.6482 23.2807 65.8822 24.7073 65.8788C26.0151 65.8755 28.0022 65.6347 29.1231 65.343C30.244 65.0547 32.2311 64.3052 33.5389 63.6778C34.8467 63.0504 36.9866 61.643 38.2944 60.5475C39.6769 59.3911 41.3923 57.4987 42.3875 56.0302C43.3318 54.6397 44.5071 52.4353 45.0064 51.1296C45.5023 49.8239 46.09 47.6873 46.3108 46.3816C46.5315 45.0691 46.6233 42.8715 46.5112 41.4641C46.4059 40.0668 46.2089 38.6153 46.0798 38.2422C45.7736 37.0953 45.8044 37.539 44.8128 40.1075C44.1631 41.4641 43.3848 43.1518 42.9887 43.9228C42.5573 44.6215 42.041 45.995 41.8474 46.9751C41.6504 47.9552 41.0458 49.6713 40.4989 50.7904C39.9554 51.9096 38.8481 53.6663 38.0396 54.6906C37.2244 55.7249 35.4377 57.3223 34.0348 58.2719C32.6422 59.2147 30.4309 60.344 29.1231 60.7748C27.2855 61.3818 26.2019 61.531 24.3405 61.4327C22.3296 61.3242 21.6978 61.1376 20.5021 60.2864C19.7141 59.7268 18.8479 58.7738 18.5761 58.1668C17.973 56.5771 18.1176 56.2404 18.1685 54.9449L18.2535 52.8253C24.0449 52.5133 26.3378 52.2996 27.0851 52.1504C27.8323 51.9978 29.4356 51.4721 30.6517 50.9838C31.8643 50.492 33.7665 49.4847 34.8704 48.7454C35.9778 48.0061 37.632 46.5613 38.5491 45.5337C39.4629 44.5095 40.8012 42.4476 41.5247 40.9553C42.2448 39.4631 43.1042 37.2519 43.4337 36.0378C43.8549 34.4947 44.0383 32.5616 44.0451 29.5941C43.9154 26.5275 43.9499 25.4909 42.6321 20.946C41.8508 18.5211 41.0016 16.3676 40.7468 16.1573C40.38 15.8555 40.0437 16.1607 39.1198 17.6394Z" fill="#22BE6E"/>
</svg>
