<svg width="512" height="512" viewBox="0 0 512 512" fill="none" xmlns="http://www.w3.org/2000/svg">
<rect width="512" height="512" rx="60" fill="white"/>
<path fill-rule="evenodd" clip-rule="evenodd" d="M245.473 87.3058C239.818 98.8145 229.25 117.514 221.989 128.847C214.729 140.179 199.014 163.041 187.076 179.649C175.138 196.258 161.83 215.133 157.505 221.581C153.161 228.029 146.037 240.338 141.673 248.936C137.289 257.533 131.986 268.964 129.872 274.337C127.758 279.71 124.882 291.141 123.473 299.738C121.378 312.419 121.359 318.848 123.335 333.932C124.686 344.132 127.954 357.77 130.596 364.218C133.238 370.666 138.268 380.69 141.771 386.513C145.254 392.316 153.904 402.867 160.989 409.96C168.054 417.033 179.072 425.982 185.452 429.832C191.812 433.681 199.014 437.413 201.44 438.136C205.668 439.386 205.589 439.054 199.894 430.164C196.626 425.044 191.068 411.113 191.068 411.113C191.068 411.113 185.295 398.471 177.408 390.596C170.539 383.738 163.787 374.183 158.797 364.218C154.491 355.621 150.01 343.311 148.836 336.863C147.661 330.415 147.192 318.535 147.798 310.485C148.425 302.415 150.773 290.555 153.004 284.107C155.255 277.659 160.617 265.779 164.922 257.728C169.228 249.659 180.363 232.523 189.64 219.627C198.916 206.731 214.513 184.671 224.279 170.622C234.044 156.573 245.121 139.671 248.898 133.067C252.656 126.463 256.178 121.011 256.726 120.953C257.255 120.894 258.86 123.278 260.288 126.267C261.697 129.257 270.249 142.68 279.291 156.124C288.332 169.547 297.863 183.186 300.466 186.41L305.182 192.271C318.099 183.186 322.228 179.669 322.678 178.594C323.148 177.519 316.083 165.639 306.983 152.216C297.883 138.773 284.32 116.791 276.864 103.367C269.388 89.9241 262.03 76.0511 260.503 72.5145C258.957 68.9778 257.255 66.1446 256.726 66.2228C256.178 66.3009 251.129 75.7775 245.473 87.3058Z" fill="#13645B"/>
<path fill-rule="evenodd" clip-rule="evenodd" d="M347.262 167.849C343.563 173.731 336.146 182.269 330.764 186.783C325.382 191.316 317.887 197.119 314.129 199.698C310.352 202.278 295.831 209.703 281.839 216.19C267.846 222.696 251.994 230.59 246.612 233.736C241.23 236.882 232.972 243.017 228.255 247.375C223.539 251.732 216.983 259.255 213.695 264.081C210.388 268.927 205.593 278.149 203.029 284.597C199.761 292.823 197.98 302.3 197.041 316.368C196.199 329.323 196.414 336.357 197.686 336.279C198.763 336.22 204.477 329.831 210.388 322.113C216.298 314.375 222.678 303.433 224.576 297.786C226.474 292.139 230.095 284.226 232.639 280.201C235.183 276.176 241.348 269.142 246.338 264.569C252.464 258.981 266.75 250.794 290.156 239.5C309.256 230.258 329.962 218.828 336.146 214.099L347.399 205.463C350.413 216.815 351.274 228.031 351.274 237.703C351.254 247.433 349.865 260.544 348.143 267.012C346.44 273.46 342.291 284.46 338.905 291.436C335.246 299.056 328.064 308.963 321.018 316.173C313.034 324.34 305.147 330.085 296.516 334.051C289.51 337.256 278.512 340.832 272.053 341.965C265.595 343.098 256.123 344.505 251.015 345.091C244.322 345.853 241.72 345.462 241.7 343.704C241.7 342.356 256.593 326.763 274.793 309.021C292.994 291.299 310 273.264 312.544 268.966C315.108 264.667 318.376 258.512 319.805 255.288C322.095 250.149 320.999 250.735 310.9 260.173C304.579 266.093 284.97 281.041 267.337 293.39C249.313 306.012 231.015 320.569 225.574 326.607C220.231 332.527 213.206 343.079 209.957 350.054C206.689 357.049 203.225 368.03 202.266 374.478C201.131 381.982 201.209 389.895 202.52 396.46C203.616 402.107 206.18 410.021 208.196 414.046C210.211 418.071 216.22 425.339 221.562 430.166C226.905 435.011 235.614 440.502 240.898 442.397C246.671 444.449 256.006 445.797 264.225 445.778C271.76 445.758 283.208 444.371 289.667 442.69C296.125 441.03 307.573 436.711 315.108 433.097C322.642 429.482 334.972 421.373 342.506 415.062C350.471 408.399 360.354 397.496 366.089 389.035C371.529 381.024 378.3 368.323 381.177 360.801C384.034 353.278 387.42 340.968 388.692 333.446C389.964 325.884 390.493 313.222 389.847 305.114C389.24 297.063 388.105 288.7 387.361 286.551C385.597 279.943 385.775 282.5 380.062 297.298C376.318 305.114 371.834 314.837 369.552 319.28C367.067 323.305 364.092 331.218 362.977 336.865C361.842 342.512 358.358 352.399 355.207 358.847C352.076 365.295 345.696 375.416 341.039 381.317C336.342 387.277 326.048 396.48 317.965 401.951C309.941 407.383 297.201 413.889 289.667 416.371C279.079 419.868 272.836 420.728 262.112 420.161C250.526 419.536 246.886 418.462 239.997 413.557C235.457 410.333 230.467 404.843 228.901 401.345C225.426 392.186 226.259 390.247 226.553 382.783L227.042 370.571C260.409 368.773 273.619 367.542 277.925 366.682C282.23 365.803 291.467 362.774 298.473 359.961C305.46 357.127 316.419 351.324 322.78 347.065C329.159 342.805 338.69 334.481 343.974 328.561C349.238 322.66 356.949 310.78 361.118 302.183C365.267 293.585 370.218 280.846 372.116 273.851C374.543 264.96 375.6 253.823 375.639 236.726C374.891 219.058 375.09 213.085 367.498 186.9C362.996 172.929 358.104 160.522 356.636 159.311C354.522 157.572 352.585 159.33 347.262 167.849Z" fill="#22BE6E"/>
</svg>
